HIERARCHY
ROOT Hips
{
	OFFSET 0.00000 0.00000 0.00000
	CHANNELS 6 Xposition Yposition Zposition Zrotation Yrotation Xrotation 
	JOINT LHipJoint
	{
		OFFSET 0 0 0
		CHANNELS 3 Zrotation Yrotation Xrotation
		JOINT LeftUpLeg
		{
			OFFSET 3.13874 -1.57224 1.49786
			CHANNELS 3 Zrotation Yrotation Xrotation
			JOINT LeftLeg
			{
				OFFSET 2.10955 -5.79594 0.00000
				CHANNELS 3 Zrotation Yrotation Xrotation
				JOINT LeftFoot
				{
					OFFSET 2.41843 -6.64458 0.00000
					CHANNELS 3 Zrotation Yrotation Xrotation
					JOINT LeftToeBase
					{
						OFFSET 0.04713 -0.12948 1.66229
						CHANNELS 3 Zrotation Yrotation Xrotation
						End Site
						{
							OFFSET 0.00000 -0.00000 0.85167
						}
					}
				}
			}
		}
	}
	JOINT RHipJoint
	{
		OFFSET 0 0 0
		CHANNELS 3 Zrotation Yrotation Xrotation
		JOINT RightUpLeg
		{
			OFFSET -3.13988 -1.57224 1.49786
			CHANNELS 3 Zrotation Yrotation Xrotation
			JOINT RightLeg
			{
				OFFSET -2.15006 -5.90725 0.00000
				CHANNELS 3 Zrotation Yrotation Xrotation
				JOINT RightFoot
				{
					OFFSET -2.34496 -6.44273 0.00000
					CHANNELS 3 Zrotation Yrotation Xrotation
					JOINT RightToeBase
					{
						OFFSET -0.08699 -0.23900 1.55223
						CHANNELS 3 Zrotation Yrotation Xrotation
						End Site
						{
							OFFSET -0.00000 -0.00000 0.80281
						}
					}
				}
			}
		}
	}
	JOINT LowerBack
	{
		OFFSET 0 0 0
		CHANNELS 3 Zrotation Yrotation Xrotation
		JOINT Spine
		{
			OFFSET 0.01292 1.96517 -0.16495
			CHANNELS 3 Zrotation Yrotation Xrotation
			JOINT Spine1
			{
				OFFSET 0.02122 1.88666 0.19706
				CHANNELS 3 Zrotation Yrotation Xrotation
				JOINT Neck
				{
					OFFSET 0 0 0
					CHANNELS 3 Zrotation Yrotation Xrotation
					JOINT Neck1
					{
						OFFSET -0.01683 1.81591 0.07903
						CHANNELS 3 Zrotation Yrotation Xrotation
						JOINT Head
						{
							OFFSET 0.00815 1.74013 -0.47700
							CHANNELS 3 Zrotation Yrotation Xrotation
							End Site
							{
								OFFSET -0.00204 1.83225 -0.16933
							}
						}
					}
				}
				JOINT LeftShoulder
				{
					OFFSET 0 0 0
					CHANNELS 3 Zrotation Yrotation Xrotation
					JOINT LeftArm
					{
						OFFSET 3.38482 1.41533 0.19802
						CHANNELS 3 Zrotation Yrotation Xrotation
						JOINT LeftForeArm
						{
							OFFSET 4.32712 -0.00000 0.00000
							CHANNELS 3 Zrotation Yrotation Xrotation
							JOINT LeftHand
							{
								OFFSET 3.28587 -0.00000 -0.00000
								CHANNELS 3 Zrotation Yrotation Xrotation
								JOINT LeftFingerBase
								{
									OFFSET 0 0 0
									CHANNELS 3 Zrotation Yrotation Xrotation
									JOINT LeftHandIndex1
									{
										OFFSET 0.43316 -0.00000 -0.00000
										CHANNELS 3 Zrotation Yrotation Xrotation
										End Site
										{
											OFFSET 0.34922 -0.00000 -0.00000
										}
									}
								}
								JOINT LThumb
								{
									OFFSET 0 0 0
									CHANNELS 3 Zrotation Yrotation Xrotation
									End Site
									{
										OFFSET 0.35456 -0.00000 0.35456
									}
								}
							}
						}
					}
				}
				JOINT RightShoulder
				{
					OFFSET 0 0 0
					CHANNELS 3 Zrotation Yrotation Xrotation
					JOINT RightArm
					{
						OFFSET -3.09725 1.62858 -0.14144
						CHANNELS 3 Zrotation Yrotation Xrotation
						JOINT RightForeArm
						{
							OFFSET -4.29104 -0.00000 0.00000
							CHANNELS 3 Zrotation Yrotation Xrotation
							JOINT RightHand
							{
								OFFSET -3.22720 -0.00000 -0.00000
								CHANNELS 3 Zrotation Yrotation Xrotation
								JOINT RightFingerBase
								{
									OFFSET 0 0 0
									CHANNELS 3 Zrotation Yrotation Xrotation
									JOINT RightHandIndex1
									{
										OFFSET -0.54362 -0.00000 -0.00000
										CHANNELS 3 Zrotation Yrotation Xrotation
										End Site
										{
											OFFSET -0.43828 -0.00000 -0.00000
										}
									}
								}
								JOINT RThumb
								{
									OFFSET 0 0 0
									CHANNELS 3 Zrotation Yrotation Xrotation
									End Site
									{
										OFFSET -0.44497 -0.00000 0.44497
									}
								}
							}
						}
					}
				}
			}
		}
	}
}
MOTION
Frames: 9
Frame Time: 0.0166666
8.1912 15.8385 4.5646 -172.9480 -39.8617 -177.2860 0.0000 0.0000 0.0000 -10.3532 -25.3768 -10.5711 1.0342 6.4684 18.1496 0.4103 9.1379 -18.6920 12.5650 -18.6194 -67.7687 0.0000 0.0000 0.0000 48.2463 34.4149 32.5776 -0.2711 3.3493 -9.2529 -13.1580 -12.8548 -72.7886 -2.6153 -10.0445 29.1211 3.3119 2.4440 5.3791 1.5121 3.3964 -9.6265 -0.7065 1.1689 -13.4087 -0.1632 -3.5232 -15.1357 0.3064 -6.7330 31.3933 -1.0214 -3.4958 13.0374 0.0000 0.0000 0.0000 -86.5824 19.6248 4.2922 18.6675 -29.0034 -4.8686 -0.0000 -0.0000 13.0747 30.4810 29.3772 16.1056 -7.1250 0.0000 -0.0000 -0.5017 63.1326 -0.2208 0.0000 0.0000 0.0000 8.7711 18.9174 2.6185 -85.3630 59.9186 -55.9853 0.0000 0.0000 45.4046 -66.9501 5.3974 -12.4655 7.1250 -0.0000 -0.0000 -27.2056 -17.0389 -20.5125
7.9753 15.8615 4.5768 -173.7070 -39.8125 -177.0270 0.0000 0.0000 0.0000 -12.6000 -25.8901 -8.0840 0.8428 5.8558 16.3667 0.5275 8.9627 -19.7902 12.0966 -18.4312 -66.2946 0.0000 0.0000 0.0000 46.8370 34.3971 32.4241 -0.2228 3.0387 -8.3864 -13.1014 -13.4556 -72.7583 -2.3831 -9.6222 27.7616 2.5946 2.4524 5.1401 1.1405 3.2715 -9.7212 -0.6865 1.1584 -13.3867 -0.1368 -3.5860 -14.4375 1.8096 -7.3302 30.8992 -0.5140 -3.5875 12.7640 0.0000 0.0000 0.0000 -86.2526 19.8418 4.3611 18.3467 -28.5988 -4.7140 -0.0000 -0.0000 12.5511 31.8965 28.7984 16.6892 -7.1250 0.0000 -0.0000 1.5263 62.8959 0.6633 0.0000 0.0000 0.0000 8.6881 19.8736 -0.6989 -82.1581 59.7664 -53.2140 0.0000 0.0000 35.8321 -65.1475 3.0553 -6.5645 7.1250 -0.0000 -0.0000 -27.3762 -22.6788 -16.6487
7.7618 15.8865 4.6031 -174.4250 -39.7556 -176.5900 0.0000 0.0000 0.0000 -14.8525 -26.8301 -5.6092 0.6593 5.1932 14.4603 0.5298 10.0135 -20.8247 11.8781 -18.3386 -65.6019 0.0000 0.0000 0.0000 45.4380 34.4765 32.1996 -0.1842 2.7644 -7.6234 -13.1501 -14.2744 -73.0508 -1.9567 -8.7753 25.0949 1.9309 2.4912 4.8655 0.6807 3.1745 -9.9165 -0.7957 1.1420 -13.4534 0.2872 -3.6970 -14.0713 2.9764 -8.0846 30.8999 -0.2538 -3.7577 12.7499 -0.0000 -0.0000 0.0000 -85.5346 20.1078 4.6332 18.2285 -28.4487 -4.6576 -0.0000 -0.0000 12.8403 31.6514 30.1422 17.1996 -7.1250 0.0000 -0.0000 0.6646 64.2775 0.3103 -0.0000 -0.0000 0.0000 12.3860 23.0781 -9.3971 -77.6930 59.4199 -49.3626 0.0000 0.0000 26.5316 -62.8680 -1.2183 2.3760 7.1250 -0.0000 -0.0000 -28.3055 -31.5461 -10.4810
7.5647 15.9130 4.6379 -174.7670 -39.7869 -176.5490 0.0000 0.0000 0.0000 -16.6466 -27.3818 -3.4271 0.5218 4.6294 12.8545 0.3431 11.5610 -20.5492 12.0770 -18.4230 -66.2325 0.0000 0.0000 0.0000 44.2051 34.5582 31.6698 -0.1382 2.3956 -6.6003 -12.9258 -16.0015 -72.8387 -1.4892 -7.7094 21.8349 1.2782 2.3713 4.9138 0.5926 2.9280 -9.9361 -0.4921 1.0853 -13.5419 0.5125 -3.7258 -14.8988 3.9467 -8.6427 31.3490 -0.0467 -3.8373 13.1811 -0.0000 0.0000 0.0000 -85.2007 19.9540 4.4860 18.1001 -28.2851 -4.5966 -0.0000 -0.0000 12.8909 31.7935 30.3506 17.3912 -7.1250 0.0000 -0.0000 0.7588 64.5415 0.3589 -0.0000 0.0000 0.0000 15.9298 28.0132 -19.3913 -75.3854 59.1774 -47.3784 0.0000 0.0000 10.6002 -62.2186 -11.6464 20.9661 7.1250 -0.0000 -0.0000 -35.8872 -49.9922 4.9878
7.3717 15.9295 4.6798 -175.6950 -39.6594 -175.7030 0.0000 0.0000 0.0000 -18.7453 -28.0035 -1.8768 0.4165 4.1427 11.4784 0.2663 12.4680 -20.8013 12.1236 -18.4424 -66.3799 0.0000 0.0000 0.0000 39.8630 31.4063 27.9519 -0.1222 2.2533 -6.2064 -11.4117 -15.2226 -68.6883 -1.3090 -7.2474 20.4505 0.3865 2.5380 4.5406 0.2810 2.9720 -10.2766 -0.3327 1.1585 -13.7433 0.5010 -3.8689 -14.5823 4.5288 -9.2017 31.7306 0.0865 -4.0438 13.3337 0.0000 0.0000 0.0000 -84.5460 20.1613 5.1035 18.0138 -28.1748 -4.5557 -0.0000 -0.0000 13.0263 31.5279 30.2694 17.1832 -7.1250 0.0000 -0.0000 0.4465 64.3790 0.2096 0.0000 0.0000 0.0000 18.4191 32.3361 -27.2016 -80.7283 59.6727 -51.9793 0.0000 -0.0000 -24.1881 -69.9956 -24.3110 48.5136 7.1250 -0.0000 -0.0000 -76.6995 -67.9485 52.5808
7.1732 15.9441 4.7161 -176.1650 -39.3876 -175.4900 0.0000 0.0000 0.0000 -20.7602 -28.7318 0.4561 0.3153 3.6094 9.9804 0.4765 12.1943 -22.5583 11.5761 -18.2057 -64.6387 0.0000 0.0000 0.0000 37.2661 29.1634 26.1782 -0.1134 2.1710 -5.9786 -10.4088 -14.5156 -65.7429 -1.1448 -6.7943 19.1074 -0.1992 2.6833 4.4554 0.2369 3.0851 -10.3741 -0.0716 1.2654 -13.8402 0.1685 -4.1389 -14.5335 4.9450 -9.7517 31.9869 0.2082 -4.2853 13.4990 0.0000 -0.0000 0.0000 -84.2328 19.9767 5.2974 17.9619 -28.1083 -4.5313 -0.0000 -0.0000 13.3338 31.2860 31.0002 17.3789 -7.1250 0.0000 -0.0000 -0.2158 65.0909 -0.1048 0.0000 -0.0000 0.0000 19.2261 34.0413 -32.3011 -85.3123 59.9168 -55.9414 0.0000 -0.0000 -51.6612 -76.0704 -27.4887 61.7490 7.1250 -0.0000 -0.0000 -84.6893 68.1478 -107.7985
6.9797 15.9516 4.7526 -176.8460 -39.0039 -175.0810 0.0000 0.0000 0.0000 -22.8147 -29.2222 2.3905 0.2371 3.1335 8.6508 0.3115 13.8387 -22.8832 11.7174 -18.2686 -65.0902 0.0000 0.0000 0.0000 34.4617 26.9498 24.2541 -0.1012 2.0515 -5.6480 -9.3254 -14.5557 -62.6662 -0.8843 -5.9944 16.7681 -1.0475 2.7591 4.2886 0.2252 3.0768 -10.4457 0.3943 1.3460 -13.8765 -0.2735 -4.1368 -14.1531 5.5741 -9.9970 32.3530 0.4882 -4.4010 13.6565 -0.0000 -0.0000 0.0000 -84.1226 19.6107 4.9049 18.0599 -28.2338 -4.5775 -0.0000 -0.0000 13.3417 31.6703 30.9534 17.6040 -7.1250 0.0000 -0.0000 0.3174 65.1517 0.1546 -0.0000 -0.0000 0.0000 18.8649 31.0494 -24.9582 -86.9963 59.9659 -57.3990 0.0000 -0.0000 -43.0810 -69.2136 -23.6011 46.5257 7.1250 -0.0000 -0.0000 -72.1518 -67.4012 47.6303
6.8042 15.9645 4.7949 -177.3790 -38.6496 -174.6460 0.0000 0.0000 0.0000 -24.5960 -29.8001 4.1639 0.1669 2.6320 7.2557 0.0398 15.8923 -22.9353 11.8953 -18.3460 -65.6566 0.0000 0.0000 0.0000 32.6952 26.0793 23.3779 -0.0909 1.9443 -5.3516 -8.9257 -14.6596 -61.5297 -0.7215 -5.4276 15.1322 -1.7066 2.7725 4.0318 0.1801 3.0056 -10.4872 0.7330 1.3749 -13.8047 -0.2222 -4.1243 -14.8379 5.8301 -10.2021 32.8068 0.5161 -4.4256 14.0372 0.0000 0.0000 0.0000 -83.9350 19.5976 4.8332 18.7311 -29.0831 -4.8994 -0.0000 -0.0000 12.7600 31.0035 30.7861 17.0971 -7.1250 0.0000 -0.0000 -0.4827 64.7821 -0.2310 0.0000 0.0000 0.0000 15.5014 25.9829 -12.9517 -86.4012 59.9510 -56.8838 0.0000 -0.0000 -19.2817 -66.3127 -20.3878 38.4529 7.1250 -0.0000 -0.0000 -56.1210 -63.7143 29.8836
6.6323 15.9676 4.8421 -178.0110 -38.3130 -174.1270 0.0000 0.0000 0.0000 -26.3291 -30.0636 5.6612 0.1099 2.1371 5.8847 -0.0540 16.7088 -23.1794 11.9161 -18.3550 -65.7226 0.0000 0.0000 0.0000 31.4429 26.0095 23.6032 -0.1014 2.0531 -5.6525 -8.9253 -14.6493 -61.5247 -0.6567 -5.1833 14.4322 -2.3496 2.7463 3.7372 0.1063 2.8841 -10.5081 1.0408 1.3758 -13.6797 -0.3746 -4.1162 -14.5227 6.1777 -10.2887 32.7004 0.6728 -4.4624 13.9603 0.0000 0.0000 0.0000 -83.9341 19.8590 4.6860 19.7435 -30.3321 -5.4012 -0.0000 -0.0000 11.3083 32.0383 30.2034 17.4751 -7.1250 0.0000 -0.0000 1.1456 64.4529 0.5396 0.0000 0.0000 0.0000 10.6680 22.4916 -3.2154 -84.2765 59.8759 -55.0454 0.0000 0.0000 10.7607 -61.0719 -13.6783 23.1645 7.1250 -0.0000 -0.0000 -36.3034 -52.7008 7.6982
